<svg id="Layer_1" data-name="Layer 1" xmlns="http://www.w3.org/2000/svg" viewBox="0 0 280.18 280.18"><defs><style>.cls-1{fill:#ffce00;fill-opacity:0.68;stroke:#ffce00;}.cls-1,.cls-3,.cls-5,.cls-6{stroke-miterlimit:10;stroke-width:0.75px;}.cls-2{fill:#ff7900;fill-opacity:0.46;}.cls-3{fill:#1072d6;fill-opacity:0.57;stroke:#1072d6;}.cls-4{opacity:0.63;}.cls-5{fill:#bcbcbc;stroke:#666;}.cls-6{fill:#fc3424;fill-opacity:0.4;stroke:#fc3424;}</style></defs><path class="cls-1" d="M109.79,109.23c-44.68,44.68-40.36,121.45,9.66,171.47S246.24,335,290.92,290.36s40.36-121.46-9.65-171.48S154.48,64.54,109.79,109.23ZM270.56,270c-34.64,34.64-94.15,31.29-132.92-7.48s-42.12-98.28-7.48-132.92,94.14-31.29,132.92,7.48S305.2,235.36,270.56,270Z" transform="translate(-59.88 -59.29)"/><path class="cls-2" d="M130.16,129.59c-34.64,34.64-31.29,94.15,7.48,132.92s98.28,42.12,132.92,7.48,31.29-94.14-7.48-132.92S164.79,95,130.16,129.59Zm118,118c-24,24-64.91,22.14-91.29-4.23S128.56,176.07,152.6,152s64.91-22.14,91.28,4.24S272.15,223.51,248.12,247.55Z" transform="translate(-59.88 -59.29)"/><ellipse class="cls-3" cx="200.36" cy="199.79" rx="61.55" ry="67.54" transform="translate(-142.47 140.9) rotate(-45)"/><g id="Layer_3" data-name="Layer 3"><g class="cls-4"><polygon class="cls-5" points="166.25 180 236.66 279.6 236.75 279.51 279.51 236.75 279.6 236.66 180 166.25 166.25 180"/><polygon class="cls-5" points="113.92 100.18 43.51 0.58 43.43 0.67 0.67 43.43 0.58 43.51 100.18 113.92 113.92 100.18"/></g><polygon class="cls-6" points="180 113.92 166.25 100.18 140.09 126.34 113.92 100.18 100.18 113.92 126.34 140.09 100.18 166.25 113.92 180 140.09 153.84 166.25 180 180 166.25 153.84 140.09 180 113.92"/></g><g id="Layer_3_copy" data-name="Layer 3 copy"><g class="cls-4"><polygon class="cls-5" points="100.18 166.25 0.58 236.66 0.67 236.75 43.43 279.51 43.51 279.6 113.92 180 100.18 166.25"/><polygon class="cls-5" points="180 113.92 279.6 43.51 279.51 43.43 236.75 0.67 236.66 0.58 166.25 100.18 180 113.92"/></g></g></svg>